<?xml version="1.0" encoding="UTF-8"?>
<svg id="Layer_1" data-name="Layer 1" xmlns="http://www.w3.org/2000/svg" viewBox="0 0 870.21 527.83">
  <path d="m870.1,263.92l.11-.2-6.62-11.77c-37.64-66.82-89.5-122.68-150.4-164.74l-.14.14c-42.01-28.98-88.33-51.36-137.31-66.15l.1-.1C530.71,7.46,483.4,0,435.09,0,258.24,0,94.06,96.55,6.62,251.99l-6.62,11.75.1.18-.1.18,6.62,11.77c87.49,155.41,251.68,251.97,428.5,251.97,48.41,0,95.81-7.48,141-21.17l-.12-.12c48.95-14.82,95.25-37.21,137.23-66.21l.18.18c60.8-42.05,112.61-97.87,150.19-164.64h0l6.62-11.75-.11-.2Zm-435,215.61c-34.74,0-68.88-4.34-101.97-12.28l-.48.48c-50.58-12.17-98.5-33.2-141.61-61.83l.25-.25c-54.33-36.01-101.09-84.06-135.91-141.7,34.87-57.71,81.71-105.81,136.15-141.86l-.3-.3c43.15-28.61,91.1-49.61,141.72-61.74l.49.49c32.99-7.86,67.04-12.2,101.68-12.2,154.97,0,299.21,82.25,379.72,215.57-80.53,133.33-224.79,215.61-379.75,215.61Z"/>
  <circle cx="435.26" cy="263.71" r="146.66" transform="translate(-58.99 385.02) rotate(-45)"/>
</svg>