<?xml version="1.0" encoding="UTF-8"?>
<svg id="Layer_1" data-name="Layer 1" xmlns="http://www.w3.org/2000/svg" viewBox="0 0 870.21 595.81">
  <path d="m731.05,16.25c-1.25-3.18-3.15-6.17-5.72-8.74h0c-10.02-10.02-26.28-10.02-36.28,0L144.94,551.63c-7.3,7.3-9.28,17.88-5.95,26.97,1.23,3.54,3.26,6.86,6.09,9.69,10.02,10.02,26.25,10.02,36.28,0L725.47,44.18c7.56-7.54,9.41-18.63,5.58-27.92Z"/>
  <path d="m288.6,297.7c0,13.79,2.04,27.09,5.61,39.75l180.8-180.8c-12.66-3.55-25.94-5.61-39.75-5.61-80.99,0-146.66,65.67-146.66,146.66Z"/>
  <path d="m435.29,444.36c80.99,0,146.66-65.67,146.66-146.66,0-13.57-1.99-26.64-5.44-39.11l-180.32,180.32c12.47,3.45,25.53,5.44,39.11,5.44Z"/>
  <path d="m191.28,439.64c-54.4-36.06-101.2-84.18-136.04-141.92,80.49-133.45,224.8-215.78,379.85-215.78,34.65,0,68.69,4.34,101.68,12.2l39.06-39.06c-45.12-13.64-92.43-21.1-140.74-21.1-176.85,0-341.04,96.55-428.48,251.99l-6.62,11.75,6.62,11.75h0c37.57,66.77,89.38,122.59,150.19,164.64l34.48-34.48Z"/>
  <path d="m863.6,285.93c-37.64-66.82-89.5-122.68-150.4-164.74l-34.5,34.5c54.5,36.08,101.37,84.25,136.26,142.03-80.51,133.43-224.83,215.78-379.85,215.78-34.74,0-68.88-4.34-101.97-12.28l-39.03,39.03c45.19,13.69,92.59,21.17,141,21.17,176.82,0,341.01-96.55,428.5-251.97l6.62-11.77-6.62-11.77Z"/>
</svg>